<?xml version="1.0" encoding="UTF-8"?>
<svg version="1.1" xmlns="http://www.w3.org/2000/svg" width="128" height="128">
<path d="M0 0 C10.98270284 7.89445679 17.57085879 19.80837552 20.49609375 32.86328125 C22.81743802 47.31319949 19.58169046 60.58734578 12 73 C3.53733884 84.68393218 -8.86956327 92.31315888 -23 95 C-25.77816135 95.27893583 -28.5216498 95.33496028 -31.3125 95.3125 C-32.0545166 95.30686035 -32.7965332 95.3012207 -33.56103516 95.29541016 C-47.84803039 94.98192188 -59.92757603 89.05018904 -70 79 C-70.53238281 78.47921875 -71.06476563 77.9584375 -71.61328125 77.421875 C-82.33770415 66.00465992 -84.60218595 52.17636897 -84.30859375 37.18359375 C-83.72598358 23.74004543 -76.9314402 11.98570866 -67.23046875 2.84765625 C-47.23902984 -13.71267755 -21.34704512 -14.43791441 0 0 Z M-40 9 C-36.19572508 11.2013866 -36.19572508 11.2013866 -32 12 C-31.67 9.69 -31.34 7.38 -31 5 C-35.55641677 4.49373147 -37.08169543 5.54126866 -40 9 Z M-23 6 C-21.62514468 7.54166642 -21.62514468 7.54166642 -20 9 C-19.34 9 -18.68 9 -18 9 C-18 8.34 -18 7.68 -18 7 C-19.65 6.67 -21.3 6.34 -23 6 Z M-14 16 C-14.33 16.99 -14.66 17.98 -15 19 C-17.109375 19.95703125 -17.109375 19.95703125 -19.75 20.8125 C-24.82404545 22.71435967 -27.10461059 24.42341674 -30 29 C-30.86542699 31.72113503 -30.86542699 31.72113503 -31 34 C-33.31 33.67 -35.62 33.34 -38 33 C-38.33 33.99 -38.66 34.98 -39 36 C-38.01 36 -37.02 36 -36 36 C-35.855625 36.804375 -35.71125 37.60875 -35.5625 38.4375 C-35.25864751 40.92103706 -35.25864751 40.92103706 -34 42 C-32.865625 41.938125 -31.73125 41.87625 -30.5625 41.8125 C-24.00572346 41.74187045 -17.729728 44.23533936 -12.8125 48.5625 C-9.60941595 51.33850618 -6.92953195 52.50677786 -3 54 C-3 62.35568045 -8.6627744 68.55902645 -14.26171875 74.33203125 C-14.83535156 74.88246094 -15.40898438 75.43289062 -16 76 C-8.11615745 73.80249216 -3.29741699 68.82424204 0.875 61.87890625 C6.1794343 51.4613033 7.88118 42.21419021 4.375 30.75 C1.95662091 24.18336924 -1.76611392 18.66652716 -7 14 C-9.71982714 14 -11.56723614 14.81480735 -14 16 Z M-66 26 C-70.11751908 34.0560156 -70.95720728 42.57499218 -68.8515625 51.390625 C-65.0484456 63.04421256 -59.65616106 70.80365989 -48.75 76.375 C-43.90361609 78.67518729 -40.20190658 80.13249229 -34.8125 80.0625 C-33.91144531 80.05347656 -33.01039062 80.04445312 -32.08203125 80.03515625 C-31.39496094 80.02355469 -30.70789062 80.01195312 -30 80 C-27.14356986 75.04569378 -26.65807507 69.64556052 -27 64 C-28.3458785 61.52997777 -29.99973946 60.04788579 -32 58 C-32.85365514 54.19138478 -33 50.90248718 -33 47 C-34.175625 46.5875 -35.35125 46.175 -36.5625 45.75 C-39.43023259 44.68093361 -42.0498802 43.48869931 -44.6875 41.9375 C-47.80558742 39.97115178 -47.80558742 39.97115178 -50.6875 39.0625 C-53.74092008 37.65957726 -54.97805955 35.65379684 -57 33 C-60.0733249 29.96733837 -60.0733249 29.96733837 -64 29 C-64.33 28.01 -64.66 27.02 -65 26 C-65.33 26 -65.66 26 -66 26 Z " fill="#000000" transform="translate(84,10)"/>
<path d="M0 0 C3.92348239 0.56515344 5.83581723 2.82743757 8.46582031 5.57763672 C8.98907898 6.10559845 9.51233765 6.63356018 10.05145264 7.17752075 C11.71723832 8.86462914 13.36458555 10.56858833 15.01269531 12.27294922 C16.13659488 13.41335768 17.26158353 14.55269393 18.38769531 15.69091797 C28.1699236 25.63495562 28.1699236 25.63495562 28.12207031 33.91357422 C27.76269531 36.39794922 27.76269531 36.39794922 25.38769531 39.46044922 C21.84042482 42.07867268 19.44662005 42.93382854 14.95385742 42.86401367 C12.2455109 42.28794309 11.10448342 41.31403975 9.07910156 39.44091797 C8.38751953 38.80524902 7.6959375 38.16958008 6.98339844 37.51464844 C6.25056641 36.8161377 5.51773438 36.11762695 4.76269531 35.39794922 C3.99892578 34.67236816 3.23515625 33.94678711 2.44824219 33.19921875 C0.05174311 30.89113132 -2.31439421 28.55539428 -4.67480469 26.21044922 C-5.48884766 25.41703125 -6.30289063 24.62361328 -7.14160156 23.80615234 C-7.91439453 23.03851563 -8.6871875 22.27087891 -9.48339844 21.47998047 C-10.18134521 20.79137939 -10.87929199 20.10277832 -11.59838867 19.39331055 C-13.31299423 17.30579808 -14.00584478 16.07853779 -14.23730469 13.39794922 C-11.71794376 9.61890783 -8.48189318 6.55934314 -5.23730469 3.39794922 C-4.74230469 2.79982422 -4.24730469 2.20169922 -3.73730469 1.58544922 C-2.23730469 0.39794922 -2.23730469 0.39794922 0 0 Z " fill="#000000" transform="translate(100.2373046875,85.60205078125)"/>
</svg>
